<svg id="Layer_1" data-name="Layer 1" xmlns="http://www.w3.org/2000/svg" width="1081" height="1081" viewBox="0 0 1081 1081"><defs><style>.cls-1{fill:#1db100;}.cls-2{fill:#fff;}</style></defs><title>bodo-icon-white-bg</title><rect class="cls-1" width="1081" height="1081"/><path class="cls-2" d="M541,427.5a239.62,239.62,0,0,1,95,19.12A247.7,247.7,0,0,1,767.64,578.23a239.79,239.79,0,0,1,19.11,95q0,51.35-19.11,95.57A249.19,249.19,0,0,1,636,899.88,239.45,239.45,0,0,1,541,919q-51.35,0-95.57-19.12A250.7,250.7,0,0,1,314.36,768.82q-19.11-44.24-19.11-95.57V193.77q0-14.19,9.83-23.48A32.4,32.4,0,0,1,328,161a30.57,30.57,0,0,1,22.39,9.29q9.25,9.28,9.28,23.48V508.33q30.57-32.77,66.63-51.34A247,247,0,0,1,482,435.15a234.51,234.51,0,0,1,59-7.65m0,427.06a177.8,177.8,0,0,0,70.45-14.2,181,181,0,0,0,96.66-96.11q14.17-32.78,14.2-71a178.15,178.15,0,0,0-14.2-70.45,179.61,179.61,0,0,0-96.66-96.66,181.86,181.86,0,0,0-140.9,0,179.61,179.61,0,0,0-96.66,96.66,177.8,177.8,0,0,0-14.2,70.45q0,38.25,14.2,71a183.42,183.42,0,0,0,38.77,57.34,181.58,181.58,0,0,0,57.89,38.77A177.7,177.7,0,0,0,541,854.56"/></svg>