<?xml version="1.0" encoding="utf-8"?>
<!-- Generator: Adobe Illustrator 22.1.0, SVG Export Plug-In . SVG Version: 6.00 Build 0)  -->
<svg version="1.1" id="Layer_1" xmlns="http://www.w3.org/2000/svg" xmlns:xlink="http://www.w3.org/1999/xlink" x="0px" y="0px"
	 viewBox="0 0 1081 1081" style="enable-background:new 0 0 1081 1081;" xml:space="preserve">
<style type="text/css">
	.st0{fill:url(#SVGID_1_);}
	.st1{fill:#1DB100;}
</style>
<radialGradient id="SVGID_1_" cx="540.5" cy="540.5" r="540.5" gradientUnits="userSpaceOnUse">
	<stop  offset="0" style="stop-color:#0A1224"/>
	<stop  offset="0.3786" style="stop-color:#0B1429"/>
	<stop  offset="0.8023" style="stop-color:#0F1A36"/>
	<stop  offset="1" style="stop-color:#111E3F"/>
</radialGradient>
<rect class="st0" width="1081" height="1081"/>
<path class="st1" d="M541,427.5c33.5,0,65.2,6.4,95,19.1c29.8,12.7,56.1,30.4,78.6,53c22.6,22.6,40.2,48.8,53,78.6
	c12.7,29.9,19.1,61.5,19.1,95c0,34.2-6.4,66.1-19.1,95.6c-12.8,29.5-30.4,55.5-53,78.1c-22.6,22.6-48.8,40.2-78.6,53
	c-29.9,12.7-61.5,19.1-95,19.1c-34.2,0-66.1-6.4-95.6-19.1c-29.5-12.7-55.5-30.4-78.1-53c-22.6-22.6-40.2-48.6-53-78.1
	c-12.7-29.5-19.1-61.3-19.1-95.6V193.8c0-9.5,3.3-17.3,9.8-23.5c6.6-6.2,14.2-9.3,22.9-9.3s16.2,3.1,22.4,9.3
	c6.2,6.2,9.3,14,9.3,23.5v314.6c20.4-21.8,42.6-38.9,66.6-51.3c17.5-9.5,36-16.7,55.7-21.8C501.7,430.1,521.3,427.5,541,427.5
	 M541,854.6c24.7,0,48.2-4.7,70.4-14.2c22.2-9.5,41.5-22.4,57.9-38.8c16.4-16.4,29.3-35.5,38.8-57.3c9.5-21.8,14.2-45.5,14.2-71
	c0-24.7-4.7-48.2-14.2-70.4c-9.5-22.2-22.4-41.5-38.8-57.9c-16.4-16.4-35.7-29.3-57.9-38.8c-22.2-9.5-45.7-14.2-70.4-14.2
	c-24.8,0-48.2,4.7-70.4,14.2c-22.2,9.5-41.5,22.4-57.9,38.8c-16.4,16.4-29.3,35.7-38.8,57.9c-9.5,22.2-14.2,45.7-14.2,70.4
	c0,25.5,4.7,49.1,14.2,71c9.5,21.8,22.4,41,38.8,57.3c16.4,16.4,35.7,29.3,57.9,38.8C492.8,849.8,516.2,854.6,541,854.6"/>
</svg>
