<svg width="16" height="16" viewBox="0 0 16 16" fill="none" xmlns="http://www.w3.org/2000/svg">
    <path fill-rule="evenodd" clip-rule="evenodd"
          d="M12.8024 9.98922C13.5148 9.61156 14 8.86245 14 8C14 7.13755 13.5148 6.38844 12.8024 6.01078C13.0391 5.24002 12.8525 4.36719 12.2426 3.75734C11.6328 3.1475 10.76 2.96091 9.98921 3.19759C9.61155 2.48524 8.86244 2 8 2C7.13755 2 6.38844 2.48524 6.01078 3.19761C5.24002 2.96094 4.3672 3.14753 3.75736 3.75737C3.14752 4.36721 2.96093 5.24002 3.1976 6.01078C2.48524 6.38844 2 7.13755 2 8C2 8.86245 2.48524 9.61156 3.19761 9.98922C2.96093 10.76 3.14751 11.6328 3.75736 12.2427C4.3672 12.8525 5.24002 13.0391 6.01079 12.8024C6.38845 13.5148 7.13756 14 8 14C8.86245 14 9.61156 13.5148 9.98922 12.8024C10.76 13.0391 11.6328 12.8525 12.2426 12.2426C12.8525 11.6328 13.0391 10.76 12.8024 9.98922ZM10.8924 6.64335C11.0751 6.3921 11.0196 6.04031 10.7683 5.85759C10.5171 5.67486 10.1653 5.73041 9.98259 5.98165L7.36977 9.57428L5.96025 8.16475C5.74058 7.94508 5.38442 7.94508 5.16475 8.16475C4.94508 8.38442 4.94508 8.74058 5.16475 8.96025L7.03975 10.8352C7.15608 10.9516 7.3175 11.0111 7.4815 10.9983C7.6455 10.9854 7.79566 10.9014 7.89241 10.7683L10.8924 6.64335Z"
          fill="#0F172A"/>
</svg>
