<?xml version="1.0" encoding="UTF-8" standalone="no"?><!DOCTYPE svg PUBLIC "-//W3C//DTD SVG 1.1//EN" "http://www.w3.org/Graphics/SVG/1.1/DTD/svg11.dtd"><!-- Generated by graphviz version 2.40.1 (20161225.0304)
 --><!-- Title: Deployment s20 Pages: 1 --><svg xmlns="http://www.w3.org/2000/svg" xmlns:xlink="http://www.w3.org/1999/xlink" width="820pt" height="908pt" viewBox="0.00 0.00 820.40 908.00">
<g id="graph0" class="graph" transform="scale(1 1) rotate(0) translate(4 904)">
<title>Deployment s20</title>
<polygon fill="#ffffff" stroke="transparent" points="-4,4 -4,-904 816.3995,-904 816.3995,4 -4,4"/>
<!-- hcs -->
<g id="node1" class="node">
<title>hcs</title>
<polygon fill="none" stroke="#000000" points="122.3995,-900 68.3995,-900 68.3995,-896 64.3995,-896 64.3995,-892 68.3995,-892 68.3995,-872 64.3995,-872 64.3995,-868 68.3995,-868 68.3995,-864 122.3995,-864 122.3995,-900"/>
<polyline fill="none" stroke="#000000" points="68.3995,-896 72.3995,-896 72.3995,-892 68.3995,-892 "/>
<polyline fill="none" stroke="#000000" points="68.3995,-872 72.3995,-872 72.3995,-868 68.3995,-868 "/>
<text text-anchor="middle" x="95.3995" y="-877.8" font-family="Times,serif" font-size="14.00" fill="#000000">hcs</text>
</g>
<!-- myProvider -->
<g id="node5" class="node">
<title>myProvider</title>
<ellipse fill="none" stroke="#000000" cx="151.3995" cy="-810" rx="56.7619" ry="18"/>
<text text-anchor="middle" x="151.3995" y="-805.8" font-family="Times,serif" font-size="14.00" fill="#000000">myProvider</text>
</g>
<!-- hcs&#45;&gt;myProvider -->
<g id="edge1" class="edge">
<title>hcs-&gt;myProvider</title>
<path fill="none" stroke="#000000" d="M109.5306,-863.8314C116.0798,-855.411 123.9832,-845.2495 131.1509,-836.0338"/>
<polygon fill="#000000" stroke="#000000" points="134.0901,-837.9558 137.4668,-827.9134 128.5646,-833.6581 134.0901,-837.9558"/>
</g>
<!-- mySite -->
<g id="node6" class="node">
<title>mySite</title>
<ellipse fill="none" stroke="#000000" cx="38.3995" cy="-810" rx="38.2992" ry="18"/>
<text text-anchor="middle" x="38.3995" y="-805.8" font-family="Times,serif" font-size="14.00" fill="#000000">mySite</text>
</g>
<!-- hcs&#45;&gt;mySite -->
<g id="edge2" class="edge">
<title>hcs-&gt;mySite</title>
<path fill="none" stroke="#000000" d="M81.016,-863.8314C74.0778,-855.0673 65.6463,-844.4171 58.1201,-834.9103"/>
<polygon fill="#000000" stroke="#000000" points="60.7507,-832.5943 51.7994,-826.9263 55.2623,-836.9392 60.7507,-832.5943"/>
</g>
<!-- azure -->
<g id="node2" class="node">
<title>azure</title>
<polygon fill="none" stroke="#000000" points="662.3995,-900 608.3995,-900 608.3995,-896 604.3995,-896 604.3995,-892 608.3995,-892 608.3995,-872 604.3995,-872 604.3995,-868 608.3995,-868 608.3995,-864 662.3995,-864 662.3995,-900"/>
<polyline fill="none" stroke="#000000" points="608.3995,-896 612.3995,-896 612.3995,-892 608.3995,-892 "/>
<polyline fill="none" stroke="#000000" points="608.3995,-872 612.3995,-872 612.3995,-868 608.3995,-868 "/>
<text text-anchor="middle" x="635.3995" y="-877.8" font-family="Times,serif" font-size="14.00" fill="#000000">azure</text>
</g>
<!-- infraRG -->
<g id="node7" class="node">
<title>infraRG</title>
<ellipse fill="none" stroke="#000000" cx="509.3995" cy="-810" rx="42.8538" ry="18"/>
<text text-anchor="middle" x="509.3995" y="-805.8" font-family="Times,serif" font-size="14.00" fill="#000000">infraRG</text>
</g>
<!-- azure&#45;&gt;infraRG -->
<g id="edge3" class="edge">
<title>azure-&gt;infraRG</title>
<path fill="none" stroke="#000000" d="M608.3693,-866.5542C589.5573,-855.8045 564.3103,-841.3776 544.0248,-829.7859"/>
<polygon fill="#000000" stroke="#000000" points="545.5134,-826.6054 535.0945,-824.6829 542.0404,-832.6831 545.5134,-826.6054"/>
</g>
<!-- myAADGroup -->
<g id="node8" class="node">
<title>myAADGroup</title>
<ellipse fill="none" stroke="#000000" cx="743.3995" cy="-594" rx="68.9255" ry="18"/>
<text text-anchor="middle" x="743.3995" y="-589.8" font-family="Times,serif" font-size="14.00" fill="#000000">myAADGroup</text>
</g>
<!-- azure&#45;&gt;myAADGroup -->
<g id="edge26" class="edge">
<title>azure-&gt;myAADGroup</title>
<path fill="none" stroke="#000000" d="M642.1553,-863.9843C660.4521,-815.1929 711.0603,-680.2377 733.0147,-621.6927"/>
<polygon fill="#000000" stroke="#000000" points="736.412,-622.6011 736.6461,-612.0089 729.8577,-620.1432 736.412,-622.6011"/>
</g>
<!-- defaults -->
<g id="node3" class="node">
<title>defaults</title>
<polygon fill="none" stroke="#000000" points="740.7159,-900 692.083,-900 692.083,-904 680.083,-904 680.083,-864 740.7159,-864 740.7159,-900"/>
<polyline fill="none" stroke="#000000" points="680.083,-900 692.083,-900 "/>
<text text-anchor="middle" x="710.3995" y="-877.8" font-family="Times,serif" font-size="14.00" fill="#000000">defaults</text>
</g>
<!-- vars -->
<g id="node4" class="node">
<title>vars</title>
<polygon fill="none" stroke="#000000" points="806.3995,-900 758.3995,-900 758.3995,-864 812.3995,-864 812.3995,-894 806.3995,-900"/>
<polyline fill="none" stroke="#000000" points="806.3995,-900 806.3995,-894 "/>
<polyline fill="none" stroke="#000000" points="812.3995,-894 806.3995,-894 "/>
<text text-anchor="middle" x="785.3995" y="-877.8" font-family="Times,serif" font-size="14.00" fill="#000000">vars</text>
</g>
<!-- myRuntime -->
<g id="node9" class="node">
<title>myRuntime</title>
<polygon fill="none" stroke="#000000" points="211.7052,-738 179.0523,-756 113.7466,-756 81.0938,-738 113.7466,-720 179.0523,-720 211.7052,-738"/>
<text text-anchor="middle" x="146.3995" y="-733.8" font-family="Times,serif" font-size="14.00" fill="#000000">myRuntime</text>
</g>
<!-- myProvider&#45;&gt;myRuntime -->
<g id="edge33" class="edge">
<title>myProvider-&gt;myRuntime</title>
<path fill="none" stroke="#000000" d="M150.1377,-791.8314C149.603,-784.131 148.9671,-774.9743 148.3728,-766.4166"/>
<polygon fill="#000000" stroke="#000000" points="151.8626,-766.1467 147.6782,-756.4133 144.8794,-766.6317 151.8626,-766.1467"/>
</g>
<!-- myEdge -->
<g id="node19" class="node">
<title>myEdge</title>
<ellipse fill="none" stroke="#000000" cx="267.3995" cy="-522" rx="43.4415" ry="18"/>
<text text-anchor="middle" x="267.3995" y="-517.8" font-family="Times,serif" font-size="14.00" fill="#000000">myEdge</text>
</g>
<!-- mySite&#45;&gt;myEdge -->
<g id="edge19" class="edge">
<title>mySite-&gt;myEdge</title>
<path fill="none" stroke="#000000" d="M42.7885,-792.075C47.9496,-773.1462 57.7195,-742.9288 72.3995,-720 119.3475,-646.6713 197.0107,-578.3309 238.752,-544.3874"/>
<polygon fill="#000000" stroke="#000000" points="241.0083,-547.0642 246.6015,-538.0661 236.6178,-541.6123 241.0083,-547.0642"/>
</g>
<!-- infraVNet -->
<g id="node10" class="node">
<title>infraVNet</title>
<ellipse fill="none" stroke="#000000" cx="389.3995" cy="-738" rx="50.3567" ry="18"/>
<text text-anchor="middle" x="389.3995" y="-733.8" font-family="Times,serif" font-size="14.00" fill="#000000">infraVNet</text>
</g>
<!-- infraRG&#45;&gt;infraVNet -->
<g id="edge4" class="edge">
<title>infraRG-&gt;infraVNet</title>
<path fill="none" stroke="#000000" d="M484.8261,-795.256C467.2252,-784.6954 443.2875,-770.3328 423.7907,-758.6347"/>
<polygon fill="#000000" stroke="#000000" points="425.5596,-755.6144 415.1839,-753.4707 421.9581,-761.6169 425.5596,-755.6144"/>
</g>
<!-- natPublicIp -->
<g id="node11" class="node">
<title>natPublicIp</title>
<ellipse fill="none" stroke="#000000" cx="551.3995" cy="-738" rx="55.6159" ry="18"/>
<text text-anchor="middle" x="551.3995" y="-733.8" font-family="Times,serif" font-size="14.00" fill="#000000">natPublicIp</text>
</g>
<!-- infraRG&#45;&gt;natPublicIp -->
<g id="edge5" class="edge">
<title>infraRG-&gt;natPublicIp</title>
<path fill="none" stroke="#000000" d="M519.7815,-792.2022C524.6277,-783.8944 530.4977,-773.8316 535.8579,-764.6427"/>
<polygon fill="#000000" stroke="#000000" points="538.9758,-766.2439 540.9913,-755.8425 532.9293,-762.7168 538.9758,-766.2439"/>
</g>
<!-- nsgDMZ -->
<g id="node12" class="node">
<title>nsgDMZ</title>
<ellipse fill="none" stroke="#000000" cx="275.3995" cy="-738" rx="45.8079" ry="18"/>
<text text-anchor="middle" x="275.3995" y="-733.8" font-family="Times,serif" font-size="14.00" fill="#000000">nsgDMZ</text>
</g>
<!-- infraRG&#45;&gt;nsgDMZ -->
<g id="edge7" class="edge">
<title>infraRG-&gt;nsgDMZ</title>
<path fill="none" stroke="#000000" d="M474.3401,-799.6861C438.199,-788.9923 380.2533,-771.6754 330.3995,-756 327.0884,-754.9589 323.6693,-753.871 320.2317,-752.7679"/>
<polygon fill="#000000" stroke="#000000" points="321.1609,-749.39 310.5691,-749.645 319.0081,-756.0507 321.1609,-749.39"/>
</g>
<!-- nsgMgmt -->
<g id="node13" class="node">
<title>nsgMgmt</title>
<ellipse fill="none" stroke="#000000" cx="423.3995" cy="-666" rx="48.1148" ry="18"/>
<text text-anchor="middle" x="423.3995" y="-661.8" font-family="Times,serif" font-size="14.00" fill="#000000">nsgMgmt</text>
</g>
<!-- infraRG&#45;&gt;nsgMgmt -->
<g id="edge11" class="edge">
<title>infraRG-&gt;nsgMgmt</title>
<path fill="none" stroke="#000000" d="M498.8542,-792.3428C483.9603,-767.4043 456.6471,-721.6705 439.2887,-692.6052"/>
<polygon fill="#000000" stroke="#000000" points="442.1634,-690.5925 434.031,-683.8017 436.1536,-694.1817 442.1634,-690.5925"/>
</g>
<!-- nsgSharedDesktops -->
<g id="node14" class="node">
<title>nsgSharedDesktops</title>
<ellipse fill="none" stroke="#000000" cx="569.3995" cy="-594" rx="87.4021" ry="18"/>
<text text-anchor="middle" x="569.3995" y="-589.8" font-family="Times,serif" font-size="14.00" fill="#000000">nsgSharedDesktops</text>
</g>
<!-- infraRG&#45;&gt;nsgSharedDesktops -->
<g id="edge15" class="edge">
<title>infraRG-&gt;nsgSharedDesktops</title>
<path fill="none" stroke="#000000" d="M547.3147,-801.6629C571.6482,-794.1358 601.4032,-780.366 616.3995,-756 643.0301,-712.7305 611.9773,-653.703 589.1959,-620.1503"/>
<polygon fill="#000000" stroke="#000000" points="591.9424,-617.971 583.3337,-611.7951 586.2121,-621.9914 591.9424,-617.971"/>
</g>
<!-- myAADUser -->
<g id="node26" class="node">
<title>myAADUser</title>
<ellipse fill="none" stroke="#000000" cx="743.3995" cy="-306" rx="62.5392" ry="18"/>
<text text-anchor="middle" x="743.3995" y="-301.8" font-family="Times,serif" font-size="14.00" fill="#000000">myAADUser</text>
</g>
<!-- myAADGroup&#45;&gt;myAADUser -->
<g id="edge27" class="edge">
<title>myAADGroup-&gt;myAADUser</title>
<path fill="none" stroke="#000000" d="M743.3995,-575.9843C743.3995,-527.2939 743.3995,-392.7961 743.3995,-334.0573"/>
<polygon fill="#000000" stroke="#000000" points="746.8996,-334.0088 743.3995,-324.0089 739.8996,-334.0089 746.8996,-334.0088"/>
</g>
<!-- subnetDMZ -->
<g id="node16" class="node">
<title>subnetDMZ</title>
<ellipse fill="none" stroke="#000000" cx="280.3995" cy="-666" rx="57.9062" ry="18"/>
<text text-anchor="middle" x="280.3995" y="-661.8" font-family="Times,serif" font-size="14.00" fill="#000000">subnetDMZ</text>
</g>
<!-- myRuntime&#45;&gt;subnetDMZ -->
<g id="edge9" class="edge">
<title>myRuntime-&gt;subnetDMZ</title>
<path fill="none" stroke="#000000" d="M179.5231,-720.2022C198.5245,-709.9925 222.459,-697.1322 242.2452,-686.5008"/>
<polygon fill="#000000" stroke="#000000" points="244.1453,-689.4531 251.2977,-681.6368 240.8321,-683.2869 244.1453,-689.4531"/>
</g>
<!-- infraVNet&#45;&gt;subnetDMZ -->
<g id="edge8" class="edge">
<title>infraVNet-&gt;subnetDMZ</title>
<path fill="none" stroke="#000000" d="M365.2088,-722.0209C350.0406,-712.0015 330.2795,-698.9483 313.6487,-687.9628"/>
<polygon fill="#000000" stroke="#000000" points="315.5512,-685.0249 305.2782,-682.4336 311.6931,-690.8657 315.5512,-685.0249"/>
</g>
<!-- vnetNAT -->
<g id="node15" class="node">
<title>vnetNAT</title>
<ellipse fill="none" stroke="#000000" cx="546.3995" cy="-666" rx="47.5119" ry="18"/>
<text text-anchor="middle" x="546.3995" y="-661.8" font-family="Times,serif" font-size="14.00" fill="#000000">vnetNAT</text>
</g>
<!-- natPublicIp&#45;&gt;vnetNAT -->
<g id="edge6" class="edge">
<title>natPublicIp-&gt;vnetNAT</title>
<path fill="none" stroke="#000000" d="M550.1377,-719.8314C549.603,-712.131 548.9671,-702.9743 548.3728,-694.4166"/>
<polygon fill="#000000" stroke="#000000" points="551.8626,-694.1467 547.6782,-684.4133 544.8794,-694.6317 551.8626,-694.1467"/>
</g>
<!-- nsgDMZ&#45;&gt;subnetDMZ -->
<g id="edge10" class="edge">
<title>nsgDMZ-&gt;subnetDMZ</title>
<path fill="none" stroke="#000000" d="M276.6612,-719.8314C277.1959,-712.131 277.8318,-702.9743 278.4261,-694.4166"/>
<polygon fill="#000000" stroke="#000000" points="281.9195,-694.6317 279.1208,-684.4133 274.9363,-694.1467 281.9195,-694.6317"/>
</g>
<!-- subnetMgmt -->
<g id="node17" class="node">
<title>subnetMgmt</title>
<ellipse fill="none" stroke="#000000" cx="404.3995" cy="-594" rx="59.7128" ry="18"/>
<text text-anchor="middle" x="404.3995" y="-589.8" font-family="Times,serif" font-size="14.00" fill="#000000">subnetMgmt</text>
</g>
<!-- nsgMgmt&#45;&gt;subnetMgmt -->
<g id="edge14" class="edge">
<title>nsgMgmt-&gt;subnetMgmt</title>
<path fill="none" stroke="#000000" d="M418.605,-647.8314C416.5506,-640.0463 414.1034,-630.7729 411.8239,-622.1347"/>
<polygon fill="#000000" stroke="#000000" points="415.1943,-621.1892 409.2585,-612.4133 408.426,-622.9753 415.1943,-621.1892"/>
</g>
<!-- subnetSharedDesktops -->
<g id="node18" class="node">
<title>subnetSharedDesktops</title>
<ellipse fill="none" stroke="#000000" cx="427.3995" cy="-522" rx="98.9994" ry="18"/>
<text text-anchor="middle" x="427.3995" y="-517.8" font-family="Times,serif" font-size="14.00" fill="#000000">subnetSharedDesktops</text>
</g>
<!-- nsgSharedDesktops&#45;&gt;subnetSharedDesktops -->
<g id="edge17" class="edge">
<title>nsgSharedDesktops-&gt;subnetSharedDesktops</title>
<path fill="none" stroke="#000000" d="M536.4649,-577.3008C516.7671,-567.3132 491.5195,-554.5116 470.2776,-543.741"/>
<polygon fill="#000000" stroke="#000000" points="471.6433,-540.5093 461.1415,-539.1086 468.4777,-546.7527 471.6433,-540.5093"/>
</g>
<!-- vnetNAT&#45;&gt;subnetMgmt -->
<g id="edge12" class="edge">
<title>vnetNAT-&gt;subnetMgmt</title>
<path fill="none" stroke="#000000" d="M517.6636,-651.4297C496.4867,-640.6921 467.4227,-625.9554 444.0386,-614.0987"/>
<polygon fill="#000000" stroke="#000000" points="445.5602,-610.9461 435.0584,-609.5454 442.3945,-617.1894 445.5602,-610.9461"/>
</g>
<!-- subnetDMZ&#45;&gt;subnetMgmt -->
<g id="edge13" class="edge">
<title>subnetDMZ-&gt;subnetMgmt</title>
<path fill="none" stroke="#000000" d="M307.9191,-650.0209C325.5354,-639.792 348.5972,-626.4013 367.7561,-615.2768"/>
<polygon fill="#000000" stroke="#000000" points="369.6376,-618.2316 376.528,-610.1834 366.1226,-612.1781 369.6376,-618.2316"/>
</g>
<!-- subnetMgmt&#45;&gt;subnetSharedDesktops -->
<g id="edge16" class="edge">
<title>subnetMgmt-&gt;subnetSharedDesktops</title>
<path fill="none" stroke="#000000" d="M410.2033,-575.8314C412.6902,-568.0463 415.6526,-558.7729 418.412,-550.1347"/>
<polygon fill="#000000" stroke="#000000" points="421.8084,-551.0041 421.5174,-540.4133 415.1404,-548.874 421.8084,-551.0041"/>
</g>
<!-- subnetMgmt&#45;&gt;myEdge -->
<g id="edge18" class="edge">
<title>subnetMgmt-&gt;myEdge</title>
<path fill="none" stroke="#000000" d="M374.3342,-578.1993C353.5203,-567.2606 325.7065,-552.6431 303.6626,-541.058"/>
<polygon fill="#000000" stroke="#000000" points="305.086,-537.8522 294.6057,-536.2982 301.8294,-544.0486 305.086,-537.8522"/>
</g>
<!-- myImageDesktop -->
<g id="node20" class="node">
<title>myImageDesktop</title>
<ellipse fill="none" stroke="#000000" cx="418.3995" cy="-450" rx="79.8778" ry="18"/>
<text text-anchor="middle" x="418.3995" y="-445.8" font-family="Times,serif" font-size="14.00" fill="#000000">myImageDesktop</text>
</g>
<!-- subnetSharedDesktops&#45;&gt;myImageDesktop -->
<g id="edge22" class="edge">
<title>subnetSharedDesktops-&gt;myImageDesktop</title>
<path fill="none" stroke="#000000" d="M425.1284,-503.8314C424.1658,-496.131 423.0213,-486.9743 421.9515,-478.4166"/>
<polygon fill="#000000" stroke="#000000" points="425.4145,-477.9019 420.7011,-468.4133 418.4686,-478.7702 425.4145,-477.9019"/>
</g>
<!-- myImageMultiSession -->
<g id="node21" class="node">
<title>myImageMultiSession</title>
<ellipse fill="none" stroke="#000000" cx="614.3995" cy="-450" rx="98.4526" ry="18"/>
<text text-anchor="middle" x="614.3995" y="-445.8" font-family="Times,serif" font-size="14.00" fill="#000000">myImageMultiSession</text>
</g>
<!-- subnetSharedDesktops&#45;&gt;myImageMultiSession -->
<g id="edge23" class="edge">
<title>subnetSharedDesktops-&gt;myImageMultiSession</title>
<path fill="none" stroke="#000000" d="M469.8327,-505.6621C497.3282,-495.0756 533.3226,-481.2167 562.5165,-469.9763"/>
<polygon fill="#000000" stroke="#000000" points="564.0596,-473.1327 572.1342,-466.2733 561.5444,-466.6002 564.0596,-473.1327"/>
</g>
<!-- myUAG -->
<g id="node22" class="node">
<title>myUAG</title>
<ellipse fill="none" stroke="#000000" cx="276.3995" cy="-450" rx="44.0833" ry="18"/>
<text text-anchor="middle" x="276.3995" y="-445.8" font-family="Times,serif" font-size="14.00" fill="#000000">myUAG</text>
</g>
<!-- subnetSharedDesktops&#45;&gt;myUAG -->
<g id="edge20" class="edge">
<title>subnetSharedDesktops-&gt;myUAG</title>
<path fill="none" stroke="#000000" d="M391.9967,-505.1192C368.7563,-494.0377 338.3752,-479.5513 314.5916,-468.2108"/>
<polygon fill="#000000" stroke="#000000" points="316.034,-465.0211 305.5012,-463.8763 313.0212,-471.3396 316.034,-465.0211"/>
</g>
<!-- myEdge&#45;&gt;myUAG -->
<g id="edge21" class="edge">
<title>myEdge-&gt;myUAG</title>
<path fill="none" stroke="#000000" d="M269.6705,-503.8314C270.6331,-496.131 271.7777,-486.9743 272.8474,-478.4166"/>
<polygon fill="#000000" stroke="#000000" points="276.3303,-478.7702 274.0978,-468.4133 269.3844,-477.9019 276.3303,-478.7702"/>
</g>
<!-- tenantPrep -->
<g id="node23" class="node">
<title>tenantPrep</title>
<polygon fill="none" stroke="#000000" points="672.7563,-378 642.5779,-396 582.2211,-396 552.0426,-378 582.2211,-360 642.5779,-360 672.7563,-378"/>
<text text-anchor="middle" x="612.3995" y="-373.8" font-family="Times,serif" font-size="14.00" fill="#000000">tenantPrep</text>
</g>
<!-- myImageMultiSession&#45;&gt;tenantPrep -->
<g id="edge34" class="edge">
<title>myImageMultiSession-&gt;tenantPrep</title>
<path fill="none" stroke="#000000" d="M613.8948,-431.8314C613.6809,-424.131 613.4265,-414.9743 613.1888,-406.4166"/>
<polygon fill="#000000" stroke="#000000" points="616.6874,-406.3122 612.9109,-396.4133 609.6901,-406.5066 616.6874,-406.3122"/>
</g>
<!-- myUAG&#45;&gt;tenantPrep -->
<g id="edge35" class="edge">
<title>myUAG-&gt;tenantPrep</title>
<path fill="none" stroke="#000000" d="M309.546,-437.9563C316.0775,-435.8068 322.9162,-433.7106 329.3995,-432 406.0476,-411.7762 496.2556,-395.8967 553.8581,-386.7335"/>
<polygon fill="#000000" stroke="#000000" points="554.5375,-390.1697 563.871,-385.1561 553.4482,-383.255 554.5375,-390.1697"/>
</g>
<!-- myRg -->
<g id="node24" class="node">
<title>myRg</title>
<ellipse fill="none" stroke="#000000" cx="509.3995" cy="-306" rx="34.7922" ry="18"/>
<text text-anchor="middle" x="509.3995" y="-301.8" font-family="Times,serif" font-size="14.00" fill="#000000">myRg</text>
</g>
<!-- tenantPrep&#45;&gt;myRg -->
<g id="edge24" class="edge">
<title>tenantPrep-&gt;myRg</title>
<path fill="none" stroke="#000000" d="M586.4082,-359.8314C571.8613,-349.6627 553.6817,-336.9546 538.6395,-326.4396"/>
<polygon fill="#000000" stroke="#000000" points="540.3979,-323.3985 530.1966,-320.5378 536.3874,-329.1357 540.3979,-323.3985"/>
</g>
<!-- mySubnet -->
<g id="node25" class="node">
<title>mySubnet</title>
<ellipse fill="none" stroke="#000000" cx="612.3995" cy="-306" rx="50.4032" ry="18"/>
<text text-anchor="middle" x="612.3995" y="-301.8" font-family="Times,serif" font-size="14.00" fill="#000000">mySubnet</text>
</g>
<!-- tenantPrep&#45;&gt;mySubnet -->
<g id="edge25" class="edge">
<title>tenantPrep-&gt;mySubnet</title>
<path fill="none" stroke="#000000" d="M612.3995,-359.8314C612.3995,-352.131 612.3995,-342.9743 612.3995,-334.4166"/>
<polygon fill="#000000" stroke="#000000" points="615.8996,-334.4132 612.3995,-324.4133 608.8996,-334.4133 615.8996,-334.4132"/>
</g>
<!-- tenantPrep&#45;&gt;myAADUser -->
<g id="edge28" class="edge">
<title>tenantPrep-&gt;myAADUser</title>
<path fill="none" stroke="#000000" d="M644.1109,-360.5708C662.5451,-350.439 685.8964,-337.6047 705.3211,-326.9285"/>
<polygon fill="#000000" stroke="#000000" points="707.1418,-329.9217 714.2195,-322.0378 703.7701,-323.7872 707.1418,-329.9217"/>
</g>
<!-- myTemplate -->
<g id="node27" class="node">
<title>myTemplate</title>
<ellipse fill="none" stroke="#000000" cx="621.3995" cy="-234" rx="59.6897" ry="18"/>
<text text-anchor="middle" x="621.3995" y="-229.8" font-family="Times,serif" font-size="14.00" fill="#000000">myTemplate</text>
</g>
<!-- mySubnet&#45;&gt;myTemplate -->
<g id="edge29" class="edge">
<title>mySubnet-&gt;myTemplate</title>
<path fill="none" stroke="#000000" d="M614.6705,-287.8314C615.6331,-280.131 616.7777,-270.9743 617.8474,-262.4166"/>
<polygon fill="#000000" stroke="#000000" points="621.3303,-262.7702 619.0978,-252.4133 614.3844,-261.9019 621.3303,-262.7702"/>
</g>
<!-- myEntitlement -->
<g id="node29" class="node">
<title>myEntitlement</title>
<ellipse fill="none" stroke="#000000" cx="686.3995" cy="-90" rx="68.3748" ry="18"/>
<text text-anchor="middle" x="686.3995" y="-85.8" font-family="Times,serif" font-size="14.00" fill="#000000">myEntitlement</text>
</g>
<!-- myAADUser&#45;&gt;myEntitlement -->
<g id="edge32" class="edge">
<title>myAADUser-&gt;myEntitlement</title>
<path fill="none" stroke="#000000" d="M741.9177,-287.5726C739.064,-257.0348 731.507,-194.3153 714.3995,-144 711.2874,-134.8469 706.8204,-125.3346 702.3655,-116.8905"/>
<polygon fill="#000000" stroke="#000000" points="705.2997,-114.9626 697.4139,-107.8869 699.166,-118.3358 705.2997,-114.9626"/>
</g>
<!-- myPoolGroup -->
<g id="node28" class="node">
<title>myPoolGroup</title>
<ellipse fill="none" stroke="#000000" cx="639.3995" cy="-162" rx="65.5161" ry="18"/>
<text text-anchor="middle" x="639.3995" y="-157.8" font-family="Times,serif" font-size="14.00" fill="#000000">myPoolGroup</text>
</g>
<!-- myTemplate&#45;&gt;myPoolGroup -->
<g id="edge30" class="edge">
<title>myTemplate-&gt;myPoolGroup</title>
<path fill="none" stroke="#000000" d="M625.9416,-215.8314C627.8879,-208.0463 630.2062,-198.7729 632.3658,-190.1347"/>
<polygon fill="#000000" stroke="#000000" points="635.7662,-190.9636 634.7961,-180.4133 628.9752,-189.2658 635.7662,-190.9636"/>
</g>
<!-- myPoolGroup&#45;&gt;myEntitlement -->
<g id="edge31" class="edge">
<title>myPoolGroup-&gt;myEntitlement</title>
<path fill="none" stroke="#000000" d="M651.0174,-144.2022C656.4971,-135.8079 663.1464,-125.6218 669.1949,-116.3558"/>
<polygon fill="#000000" stroke="#000000" points="672.2168,-118.1295 674.7522,-107.8425 666.3551,-114.3032 672.2168,-118.1295"/>
</g>
<!-- tenantSummary -->
<g id="node30" class="node">
<title>tenantSummary</title>
<polygon fill="none" stroke="#000000" points="769.6044,-18 728.0019,-36 644.797,-36 603.1945,-18 644.797,0 728.0019,0 769.6044,-18"/>
<text text-anchor="middle" x="686.3995" y="-13.8" font-family="Times,serif" font-size="14.00" fill="#000000">tenantSummary</text>
</g>
<!-- myEntitlement&#45;&gt;tenantSummary -->
<g id="edge36" class="edge">
<title>myEntitlement-&gt;tenantSummary</title>
<path fill="none" stroke="#000000" d="M686.3995,-71.8314C686.3995,-64.131 686.3995,-54.9743 686.3995,-46.4166"/>
<polygon fill="#000000" stroke="#000000" points="689.8996,-46.4132 686.3995,-36.4133 682.8996,-46.4133 689.8996,-46.4132"/>
</g>
</g>
</svg>