<svg width="16" height="16" viewBox="0 0 16 16" fill="#9A9A9A"
     xmlns="http://www.w3.org/2000/svg">
    <path
            d="M12.7843 1.44389C12.7095 1.06995 12.3811 0.800781 11.9998 0.800781C11.6185 0.800781 11.2901 1.06995 11.2153 1.44389L11.0245 2.39794C10.9612 2.71462 10.7136 2.96217 10.397 3.02551L9.44291 3.21632C9.06897 3.2911 8.7998 3.61944 8.7998 4.00078C8.7998 4.38213 9.06897 4.71046 9.44291 4.78525L10.397 4.97606C10.7136 5.03939 10.9612 5.28694 11.0245 5.60363L11.2153 6.55767C11.2901 6.93161 11.6185 7.20078 11.9998 7.20078C12.3811 7.20078 12.7095 6.93161 12.7843 6.55767L12.9751 5.60363C13.0384 5.28694 13.286 5.03939 13.6027 4.97606L14.5567 4.78525C14.9306 4.71046 15.1998 4.38213 15.1998 4.00078C15.1998 3.61944 14.9306 3.2911 14.5567 3.21632L13.6027 3.02551C13.286 2.96217 13.0384 2.71462 12.9751 2.39794L12.7843 1.44389Z"/>
    <path
            d="M5.55875 4.5478C5.44986 4.22113 5.14415 4.00078 4.7998 4.00078C4.45546 4.00078 4.14975 4.22113 4.04086 4.5478L3.49384 6.18885C3.41421 6.42774 3.22676 6.61519 2.98788 6.69482L1.34682 7.24184C1.02015 7.35073 0.799805 7.65644 0.799805 8.00078C0.799805 8.34513 1.02015 8.65084 1.34682 8.75973L2.98788 9.30675C3.22676 9.38637 3.41421 9.57383 3.49384 9.81271L4.04086 11.4538C4.14975 11.7804 4.45546 12.0008 4.7998 12.0008C5.14415 12.0008 5.44986 11.7804 5.55875 11.4538L6.10577 9.81271C6.1854 9.57383 6.37285 9.38637 6.61173 9.30675L8.25279 8.75973C8.57946 8.65084 8.7998 8.34513 8.7998 8.00078C8.7998 7.65644 8.57946 7.35073 8.25279 7.24184L6.61173 6.69482C6.37285 6.61519 6.1854 6.42774 6.10577 6.18885L5.55875 4.5478Z"/>
    <path
            d="M11.1588 10.9478C11.0499 10.6211 10.7441 10.4008 10.3998 10.4008C10.0555 10.4008 9.74975 10.6211 9.64086 10.9478L9.49384 11.3889C9.41421 11.6277 9.22676 11.8152 8.98788 11.8948L8.54682 12.0418C8.22015 12.1507 7.9998 12.4564 7.9998 12.8008C7.9998 13.1451 8.22015 13.4508 8.54682 13.5597L8.98788 13.7067C9.22676 13.7864 9.41421 13.9738 9.49384 14.2127L9.64086 14.6538C9.74975 14.9804 10.0555 15.2008 10.3998 15.2008C10.7441 15.2008 11.0499 14.9804 11.1588 14.6538L11.3058 14.2127C11.3854 13.9738 11.5729 13.7864 11.8117 13.7067L12.2528 13.5597C12.5795 13.4508 12.7998 13.1451 12.7998 12.8008C12.7998 12.4564 12.5795 12.1507 12.2528 12.0418L11.8117 11.8948C11.5729 11.8152 11.3854 11.6277 11.3058 11.3889L11.1588 10.9478Z"/>
</svg>